<?xml version="1.0" standalone="no"?>
<!DOCTYPE svg PUBLIC "-//W3C//DTD SVG 20010904//EN"
 "http://www.w3.org/TR/2001/REC-SVG-20010904/DTD/svg10.dtd">
<svg version="1.0" xmlns="http://www.w3.org/2000/svg"
 width="500.000000pt" height="282.000000pt" viewBox="0 0 500.000000 282.000000"
 preserveAspectRatio="xMidYMid meet">

<g transform="translate(0.000000,282.000000) scale(0.100000,-0.100000)"
fill="#000000" stroke="none">
<path d="M930 2327 c0 -7 -15 -49 -34 -93 -19 -43 -62 -146 -96 -228 -55 -131
-66 -150 -94 -162 -30 -13 -28 -13 44 -13 56 0 70 2 58 10 -23 13 -23 31 5
101 l22 59 99 -3 99 -3 23 -60 c29 -76 29 -84 2 -95 -17 -6 1 -9 62 -9 79 0
83 1 55 13 -28 12 -40 36 -129 250 -92 219 -116 269 -116 233z m48 -187 l39
-105 -80 -3 c-44 -2 -81 -1 -84 1 -2 2 15 52 38 111 23 58 43 105 45 104 1 -2
20 -50 42 -108z"/>
<path d="M1420 2103 c0 -252 0 -255 -45 -266 -11 -2 16 -5 60 -4 44 0 70 2 57
4 -13 3 -27 16 -33 29 -5 14 -9 103 -9 197 l0 172 83 -85 c45 -47 135 -141
198 -209 l115 -123 -4 223 c-4 240 1 274 40 282 13 2 -11 5 -52 5 -67 2 -72 0
-50 -11 l25 -13 3 -189 c2 -161 0 -187 -11 -175 -32 35 -332 357 -353 380
l-24 25 0 -242z"/>
<path d="M2160 2098 l0 -246 -27 -10 c-23 -9 -15 -11 47 -11 67 -1 72 1 50 12
l-25 13 -3 188 -2 189 88 -94 c49 -52 135 -145 193 -207 l104 -114 5 243 5
243 25 13 c22 11 17 13 -50 12 -47 -1 -66 -4 -50 -8 l25 -7 2 -189 3 -190 -73
75 c-40 41 -127 134 -195 205 l-122 130 0 -247z"/>
<path d="M4050 2327 c0 -7 -15 -49 -34 -93 -19 -43 -62 -146 -96 -228 -55
-131 -66 -150 -94 -162 -30 -13 -28 -13 44 -13 56 0 70 2 58 10 -23 13 -23 31
5 101 l22 59 99 -3 99 -3 23 -60 c29 -76 29 -84 2 -95 -17 -6 1 -9 62 -9 79 0
83 1 55 13 -28 12 -40 36 -129 250 -92 219 -116 269 -116 233z m48 -187 l39
-105 -80 -3 c-44 -2 -81 -1 -84 1 -2 2 15 52 38 111 23 58 43 105 45 104 1 -2
20 -50 42 -108z"/>
<path d="M2880 2317 l25 -13 0 -224 0 -224 -25 -13 c-22 -11 -16 -13 55 -13
71 0 77 2 55 13 l-25 13 0 224 0 224 25 13 c22 11 16 13 -55 13 -71 0 -77 -2
-55 -13z"/>
<path d="M3261 2319 c15 -6 30 -20 33 -32 10 -40 7 -397 -5 -418 -6 -11 -20
-24 -32 -29 -15 -6 5 -9 63 -8 47 0 76 2 65 5 -42 10 -45 27 -45 243 0 210 3
230 40 243 8 3 -21 5 -65 5 -63 0 -74 -2 -54 -9z"/>
<path d="M3523 2323 c9 -2 17 -9 17 -14 0 -5 -38 -58 -85 -117 -47 -59 -83
-112 -81 -119 3 -6 44 -59 92 -117 88 -107 115 -126 178 -126 l31 1 -30 13
c-17 7 -75 66 -132 133 l-102 120 98 109 c69 78 105 111 126 115 18 4 -3 7
-50 7 -44 0 -72 -2 -62 -5z"/>
<path d="M877 1519 c-55 -16 -132 -90 -151 -146 -19 -55 -21 -140 -4 -194 15
-51 70 -114 121 -140 51 -26 138 -35 196 -19 25 6 61 28 84 49 37 35 40 43 44
97 l3 59 -13 -46 c-25 -87 -74 -130 -163 -145 -138 -22 -247 105 -230 268 13
128 95 208 211 208 64 -1 165 -72 165 -117 0 -9 3 -14 6 -11 3 4 2 27 -1 52
-7 42 -12 49 -49 68 -48 25 -160 33 -219 17z"/>
<path d="M2101 1517 c-48 -19 -108 -72 -134 -120 -17 -34 -22 -58 -22 -127 0
-92 13 -129 64 -183 91 -99 274 -102 370 -6 56 56 74 109 70 207 -3 66 -9 86
-34 128 -46 74 -106 107 -203 111 -46 1 -91 -2 -111 -10z m151 -17 c49 -14 94
-53 120 -104 31 -59 31 -194 1 -252 -79 -149 -280 -149 -349 -1 -33 73 -34
181 0 253 43 92 130 131 228 104z"/>
<path d="M3470 1522 c-116 -2 -131 -4 -110 -15 25 -13 25 -13 34 -216 9 -218
5 -244 -36 -261 -16 -6 27 -9 129 -9 l151 -1 16 47 c9 26 16 48 16 50 0 1 -15
-14 -33 -34 -33 -35 -37 -36 -116 -41 l-82 -5 3 109 3 109 61 3 c46 2 66 -1
78 -13 15 -15 16 -13 16 21 0 30 -3 35 -12 26 -7 -7 -40 -12 -80 -12 l-68 0 0
110 0 110 78 0 c82 0 92 -4 110 -35 10 -17 11 -14 12 23 0 34 -3 42 -17 40
-10 -1 -79 -4 -153 -6z"/>
<path d="M1405 1513 c42 -10 45 -27 45 -243 0 -216 -3 -233 -45 -243 -11 -3
49 -4 134 -3 l154 1 18 53 c10 28 16 52 14 52 -1 0 -12 -15 -23 -34 -25 -42
-73 -59 -152 -54 l-55 3 -3 206 c-1 116 2 218 7 232 6 14 20 27 33 30 13 2
-15 4 -62 4 -47 1 -76 -1 -65 -4z"/>
<path d="M2650 1507 c29 -14 37 -28 154 -296 80 -182 91 -201 100 -180 51 121
200 446 209 457 6 8 20 18 32 22 13 6 -3 9 -49 9 -63 1 -68 0 -50 -13 18 -14
18 -17 -24 -118 -24 -56 -60 -144 -80 -195 -20 -51 -40 -89 -43 -85 -10 11
-149 366 -149 379 0 7 8 17 18 22 12 8 -4 10 -63 11 -70 0 -77 -2 -55 -13z"/>
<path d="M3905 1513 c42 -10 45 -27 45 -243 0 -216 -3 -233 -45 -243 -11 -3
18 -5 65 -4 47 0 75 2 62 4 -13 3 -27 16 -33 30 -5 14 -8 116 -7 232 l3 206
44 3 c85 6 131 -35 131 -117 0 -60 -37 -99 -103 -107 -40 -6 -46 -9 -30 -15
12 -4 52 -52 91 -106 75 -106 113 -134 180 -132 37 1 37 1 8 9 -35 11 -67 40
-114 105 -19 28 -48 64 -64 81 l-29 31 24 7 c34 8 87 71 89 104 7 132 -35 163
-219 161 -65 -1 -109 -3 -98 -6z"/>
<path d="M2929 932 c-70 -73 -131 -190 -137 -267 -4 -47 -1 -57 21 -79 25 -25
96 -39 82 -16 -3 6 -16 10 -29 10 -58 0 -72 75 -32 172 28 67 107 182 142 205
48 31 47 7 -6 -228 -63 -274 -110 -501 -110 -529 0 -18 19 -30 21 -12 4 60 19
136 74 383 85 377 85 380 74 401 -16 30 -41 20 -100 -40z"/>
<path d="M3268 853 l-14 -58 -97 -3 c-53 -1 -97 -7 -97 -12 0 -5 42 -11 94
-12 l93 -3 -21 -85 c-22 -90 -52 -150 -74 -150 -7 0 -20 16 -28 35 -18 44 -38
53 -64 30 -20 -18 -20 -18 -9 14 11 30 7 52 -7 39 -10 -11 -45 -160 -41 -177
2 -10 16 8 35 46 17 34 36 64 42 68 6 4 17 -9 25 -28 20 -49 37 -60 63 -41 27
19 27 25 -2 -126 -39 -204 -40 -210 -22 -210 12 0 16 10 16 43 0 37 52 307 93
482 l14 60 44 8 c24 4 104 7 177 5 72 -2 132 0 132 4 0 14 -97 21 -218 15
l-125 -7 7 38 c3 20 9 47 12 60 4 12 2 22 -4 22 -5 0 -16 -26 -24 -57z"/>
<path d="M3910 853 l-15 -58 -90 -3 c-126 -4 -135 -22 -12 -22 96 0 97 0 92
-22 -3 -13 -11 -52 -19 -87 -18 -77 -64 -156 -91 -156 -15 0 -21 10 -28 45 -5
25 -11 47 -14 50 -2 2 -20 -13 -38 -35 -37 -43 -45 -31 -17 25 16 31 22 35 51
32 29 -2 32 0 21 13 -19 23 -48 18 -73 -12 -69 -84 -103 -97 -109 -41 -5 48
-24 45 -52 -9 -24 -47 -24 -47 -31 -21 -4 15 -5 31 -2 35 6 10 -9 40 -16 33
-2 -3 -16 -23 -30 -45 -30 -44 -35 -34 -12 22 8 19 15 39 15 44 0 20 -17 7
-34 -26 -11 -20 -40 -54 -64 -77 -51 -47 -67 -39 -52 25 4 21 4 39 -1 43 -17
10 -31 -69 -18 -103 12 -32 33 -29 78 12 l39 36 -9 -38 c-10 -46 4 -64 24 -32
7 13 23 39 35 58 l20 35 9 -34 c13 -48 29 -48 54 2 l22 43 9 -27 c7 -21 16
-28 37 -28 15 0 32 5 39 12 9 9 12 7 12 -9 0 -37 21 -38 52 -4 25 27 29 29 34
14 22 -71 47 -82 87 -39 l22 24 -27 -137 c-29 -144 -35 -211 -18 -211 6 0 10
16 10 35 0 37 45 270 86 447 l25 106 75 7 c40 4 119 6 174 3 55 -2 100 0 100
4 0 14 -97 21 -218 15 l-124 -7 6 30 c3 17 9 44 12 60 12 55 -12 31 -26 -27z"/>
<path d="M3948 673 c-50 -58 -71 -155 -41 -192 26 -31 53 -22 111 38 25 25 47
42 49 36 2 -5 16 -32 32 -58 l28 -49 -33 -56 c-38 -63 -43 -92 -16 -92 32 0
64 45 70 97 4 40 14 59 66 121 56 67 65 81 51 82 -3 1 -31 -29 -62 -65 -30
-36 -59 -65 -63 -65 -3 0 -20 25 -35 56 -27 52 -28 59 -14 83 9 16 25 27 42
29 34 4 36 22 2 22 -28 0 -44 -15 -106 -97 -51 -68 -83 -90 -105 -72 -26 21
-12 78 30 124 35 38 43 64 20 72 -6 2 -17 -4 -26 -14z m167 -322 c-8 -17 -20
-31 -26 -31 -6 0 -9 3 -7 8 29 60 43 81 46 68 2 -8 -4 -28 -13 -45z"/>
<path d="M3285 661 c-6 -11 9 -23 19 -14 9 9 7 23 -3 23 -6 0 -12 -4 -16 -9z"/>
</g>
</svg>
